<?xml version="1.0" encoding="UTF-8"?>
<svg id="Capa_2" data-name="Capa 2" xmlns="http://www.w3.org/2000/svg" viewBox="0 0 293.09 293.09">
  <defs>
    <style>
      .cls-1 {
        fill: #fff;
      }

      .cls-1, .cls-2 {
        stroke: #1d1d1b;
        stroke-miterlimit: 10;
      }

      .cls-2 {
        fill: #1d1d1b;
      }
    </style>
  </defs>
  <g id="Capa_1-2" data-name="Capa 1">
    <circle class="cls-2" cx="146.54" cy="146.54" r="146.04"/>
    <path class="cls-1" d="M259.33,108.91c-1.37-3.74-2.88-7.43-4.33-11.13-.6-1.53-1.57-2.79-3.38-2.1-1.65.63-2.18,2.09-1.56,3.77.74,2.01,1.69,3.94,2.43,5.96,5.03,13.65,8.62,27.59,7.79,42.29-.14,2.55.71,7.06-2.43,7.08-6.64.04-6.48,4.17-6.97,8.54-.21,1.85.25,4.07-3.33,3.62-8.35-1.07-11.39,1.71-8.84,9.63,2.86,8.89.1,15.41-5.03,22.08-5.07,6.58-9.65,13.53-14.61,20.19-2.57,3.45-5.34,6.78-8.33,9.87-2.33,2.42-5.39,5.43-8.78,3.44-4.13-2.42-.91-6.3.27-8.96,2.87-6.43,7.04-12.3,9.75-18.79,5.62-13.49,1.29-21.82-12.69-25.35-4.28-1.08-8.85-1.71-9.04-7.36-.17-5.33,4.18-7.49,8.1-8.92,8.76-3.21,18.03-3.8,27.3-3.8,6.36,0,12.29-1.26,16.87-6.02,5.55-5.77,4.38-14.93-2.38-17.99-5.35-2.43-10.04-.44-14.24,3.11-3.57-4.42-7.08-8.05-13.89-6.06-5.13,1.5-9.17,4.86-14.6,7.59,1.12-6.95,5.48-9.88,9.93-12.53,6.9-4.11,8.53-10.04,6.71-17.42-.58-2.37-1.41-4.74-1.56-7.14-.54-8.45,3.1-11.53,10.96-8.62,6.15,2.27,11.42,2.07,16.11-2.63,6.21-6.23,5.51-13.17-2.25-21.93-23.72-26.77-53.53-40.95-89.23-41.62-16.02-.3-32,1.82-46.69,9.04-7.04,3.46-10.29,9.54-9.44,17.45.75,7.03,5.31,10.68,11.69,12.65,7.7,2.38,13.04-1.64,17.9-6.64,5.71-5.88,12.35-10.72,20.32-6.1,10.44,6.06,21.15,7.07,32.78,6.28,8.47-.58,13.39,5.46,11.55,13.81-3.05,13.84-12.15,23.25-23.94,31.58,0-7.36.53-13.27-.17-19.02-.56-4.63.2-11.44-5.16-12.78-5.07-1.26-6.3,5.6-9.31,8.79-.42.45-.81.94-1.11,1.47-2.46,4.39-4.92,5.18-7.66.18-2.49-4.54-6-7.62-11.51-8.1-10.89-.95-20.32,8.79-20.66,21.26-.19,6.88,3.23,9.49,9.63,9.17,5.05-.25,9.27-3.04,13.9-4.58,4.97-1.66,10.33-2.39,13.04,2.99,2.61,5.17.77,10.39-3.95,13.91-2.42,1.8-5.3,3.11-8.15,4.19-7.8,2.98-15.63,5.62-19.46,14.21-1.49,3.33-4.94,2.92-8.14,2.49-13.29-1.8-16.98,2.94-12.72,16.18.99.72,1.9,1.58.74,2.7-.24.23-1.44-.52-2.19-.81-2.89-1.76-5.84-3.41-8.65-5.29-13.66-9.14-16.76-17.4-12.25-33.11,1.6-5.58,3.37-11.17,5.67-16.49,2.18-5.04,2.08-10.13,1.58-15.28-.65-6.65-4.12-11.91-10.28-14.17-6.46-2.37-12.08.34-16.29,5.64-1.91,2.4-3.76,4.89-5.26,7.55-16.2,28.68-20.37,59.19-11.76,90.85,16.07,59.13,73.45,95.86,133.75,86.17,11.85-1.9,23.29-5.49,34.08-10.91,1.56-.78,3.78-1.71,2.78-3.99-.92-2.1-2.98-1.65-4.77-.91-1.42.58-2.81,1.23-4.22,1.86-24.47,10.85-49.67,13.07-75.66,6.58C45.43,238.38,9.95,151.41,49.39,87.9c3.37-5.43,7.12-12.31,14.83-9.13,7.85,3.23,8.08,10.84,6.17,18.2-1.46,5.64-3.16,11.24-4.98,16.78-7.42,22.54-4.41,31.64,14.96,44.55,1.28.85,2.57,1.68,3.88,2.48,8.08,4.92,13.3,11.78,14.36,21.38.66,5.96,3.05,11.22,6.27,16.16,4.83,7.41,6.84,15.59,7.58,24.34.67,7.98,2.08,15.96,7.61,22.32,2.21,2.54,4.9,5.54,8.59,4.19,4.33-1.58,3.1-6.23,2.12-8.84-4.11-10.95.8-17.03,9.57-22.81,17.57-11.58,17.44-28.84.26-41.17-7.07-5.08-15.36-7.56-23.39-10.56-7.53-2.81-14.66-6.33-20.74-11.68-2.15-1.89-3.76-4.4-2.51-7.36,1.48-3.5,4.34-2.29,7.11-1.68,3.56.78,8.01,2.27,10.39-1.17,7.64-11.03,19.62-15.16,30.69-21.05,7.03-3.75,9.59-10.42,5.66-18.11-3.61-7.07-9.14-10.66-17.39-7.9-4.35,1.45-8.67,3.04-13.08,4.27-1.84.51-4.84,1.85-5.29-1.37-.9-6.53,1.4-12.09,6.73-16.2,4.42-3.41,8.83-4.1,13.27.06q12.78,12,22.53-2.1c.24-.35,1.06-.3,1.69-.46,2.86,7.46,2.54,14.96.79,22.59-.52,2.28-1.03,5.07,1.63,6.69,2.4,1.46,4.97.85,6.92-.71,10.19-8.11,19.95-16.85,24.45-29.46,5.49-15.37-3.37-26.22-19.96-25.01-5.59.41-11.63,1.44-16.37-1.24-14.71-8.33-27.26-8.92-38.98,5.58-4.37,5.41-11.35,4.38-15.74-1.96-4.45-6.43-2.04-11.59,3.89-15.57,1.5-1,3.33-1.53,5.04-2.2,41.5-16.47,98.92-.86,126.33,34.33,3.11,4,6.01,8.33,2.91,13.37-3.23,5.23-8.08,2.74-12.46,1.58-12.28-3.24-19.5,3.19-16.47,15.57,2.32,9.5,1.75,16.95-8.17,21.49-2.87,1.31-4.68,4.01-6,6.83-1.55,3.32-3.96,7.33-1.12,10.33,3.49,3.68,7.38.25,10.81-1.55,1.89-.99,3.57-2.39,5.4-3.51,4.35-2.68,8.02-3.96,10.73,2.48,2.36,5.61,6.43,5.88,10.79,1.49,2.61-2.63,5.69-6.02,8.97-1.2,3.18,4.67.44,8.15-3.7,10.57-5.24,3.06-11.07,3.41-16.99,3.24-8.34-.24-16.65.02-24.34,3.82-6.5,3.21-9.39,8.42-8.72,15.74.67,7.23,6.26,8.48,11.67,9.8,12.45,3.03,14.63,7.15,9.33,18.69-3.2,6.97-6.78,13.77-10.02,20.72-2.03,4.35-3.23,8.96,1.34,12.5,4.7,3.64,9.26,2.1,13.45-1.27,1.2-.96,2.45-1.94,3.36-3.15,8.67-11.57,17.43-23.08,25.84-34.83,5.08-7.09,6.58-14.85.91-23.7,8.36,1.55,14.4.9,14.04-8.64-.02-.61,1.02-1.81,1.56-1.8,8.91.02,7.23-7,7.63-12.01,1.14-14.27-.76-28.24-5.7-41.72ZM97.89,163.86c1.04-1.33,1.81.24,2.66.69,8.02,2.94,16,5.98,24.07,8.8,6.75,2.36,13.07,5.4,17.83,10.89,8.21,9.48,7.54,21.46-2.7,27.73-11.4,6.99-18.45,15.22-14.45,29.81-10.63-11.09-5.24-26.79-11.88-37.87-7.11-11.88-9.67-24.94-14.55-37.34-1.23-.59-1.75-1.72-.97-2.71Z"/>
  </g>
</svg>